<svg xmlns="http://www.w3.org/2000/svg" xml:space="preserve" viewBox="0 0 21 17.8"><path d="M2.3 17.8h16.4c1.3 0 2.3-1 2.3-2.3V2.6c0-2.1-2.4-3.3-4-2l-5.9 3.2c-.3.2-.8.2-1.1 0L4.1.5C2.4-.7.1.4.1 2.5v12.9c-.1 1.3.9 2.4 2.2 2.4z" fill="#7f52ff"/><path d="M17.2 16.1H3.7c-1.1 0-2.1-.9-2.1-2.1V8.2c0-1.1.9-2.1 2.1-2.1h13.5c1.1 0 2.1.9 2.1 2.1V14c0 1.2-.9 2.1-2.1 2.1z"/><path d="M6.3 7v1.3c.6 0 1.2.2 1.6.7s.7 1 .7 1.6c0 1.3-1 2.3-2.3 2.3-1.3 0-2.3-1-2.3-2.3 0-1.3 1-2.3 2.3-2.3V7m0 0c-2 0-3.5 1.6-3.6 3.5 0 2 1.6 3.6 3.5 3.6 2 0 3.5-1.6 3.6-3.5C9.9 8.5 8.3 7 6.3 7zm8.4 0v1.3c1.3 0 2.3 1 2.3 2.3 0 1.3-1 2.3-2.3 2.3-1.3 0-2.3-1-2.3-2.3 0-1.3 1-2.3 2.3-2.3V7m0 0c-2 0-3.5 1.6-3.6 3.5 0 2 1.6 3.6 3.5 3.6 2 0 3.5-1.6 3.6-3.5.1-2-1.5-3.6-3.5-3.6z" fill="#fff"/></svg>
